<?xml version="1.0" standalone="no"?>
<!DOCTYPE svg PUBLIC "-//W3C//DTD SVG 20010904//EN"
 "http://www.w3.org/TR/2001/REC-SVG-20010904/DTD/svg10.dtd">
<svg version="1.0" xmlns="http://www.w3.org/2000/svg"
 width="171.000000pt" height="171.000000pt" viewBox="0 0 171.000000 171.000000"
 preserveAspectRatio="xMidYMid meet">

<g transform="translate(0.000000,171.000000) scale(0.100000,-0.100000)"
fill="#000000" stroke="none">
<path d="M398 1503 l-3 -168 -168 -3 -168 -2 1 -470 1 -470 167 -2 167 -3 3
-173 2 -172 475 0 475 0 0 175 0 175 170 0 170 0 0 470 0 470 -167 2 -168 3
-3 168 -2 167 -475 0 -475 0 -2 -167z m812 -123 l0 -170 173 -2 172 -3 3 -342
2 -343 -175 0 -175 0 0 -170 0 -170 -340 0 -340 0 0 170 0 170 -170 0 -170 0
0 345 0 345 170 0 170 0 0 170 0 170 340 0 340 0 0 -170z"/>
<path d="M784 1274 c-42 -10 -101 -73 -144 -154 -37 -72 -43 -93 -52 -187 -14
-130 0 -277 32 -351 30 -69 85 -119 143 -127 88 -13 172 17 200 72 33 65 27
171 -11 203 -15 12 -18 25 -14 64 l4 48 62 -6 c33 -3 72 -7 85 -8 13 -2 26 2
28 9 5 15 -49 32 -120 37 -65 5 -79 11 -47 21 27 9 104 -2 147 -20 32 -14 51
-6 38 15 -11 17 -115 42 -161 38 -24 -2 -44 0 -44 4 0 5 6 8 14 8 8 0 26 14
41 32 24 29 27 38 23 97 -4 81 -31 136 -84 173 -38 27 -99 41 -140 32z m91
-39 c0 -5 -18 -10 -39 -11 -33 -1 -46 -8 -83 -48 -23 -26 -43 -56 -43 -67 0
-11 -16 -55 -36 -99 l-36 -79 4 -143 c3 -79 8 -151 12 -160 12 -26 -11 -22
-26 5 -9 15 -13 69 -13 177 1 180 15 246 75 339 53 81 83 103 139 99 25 -2 46
-7 46 -13z"/>
</g>
</svg>
