<?xml version="1.0" standalone="no"?>
<!DOCTYPE svg PUBLIC "-//W3C//DTD SVG 20010904//EN"
 "http://www.w3.org/TR/2001/REC-SVG-20010904/DTD/svg10.dtd">
<svg version="1.0" xmlns="http://www.w3.org/2000/svg"
 width="170.000000pt" height="170.000000pt" viewBox="0 0 170.000000 170.000000"
 preserveAspectRatio="xMidYMid meet">

<g transform="translate(0.000000,170.000000) scale(0.100000,-0.100000)"
fill="#000000" stroke="none">
<path d="M390 1490 l0 -170 -170 0 -170 0 0 -475 0 -475 170 0 170 0 0 -175 0
-175 480 0 480 0 0 175 0 175 170 0 170 0 0 475 0 475 -170 0 -170 0 0 170 0
170 -480 0 -480 0 0 -170z m820 -130 l0 -170 173 -2 172 -3 0 -340 0 -340
-172 -3 -173 -2 0 -170 0 -170 -340 0 -340 0 0 170 0 170 -170 0 -170 0 0 345
0 345 170 0 170 0 0 170 0 170 340 0 340 0 0 -170z"/>
<path d="M765 1242 c-51 -24 -87 -66 -132 -156 -30 -60 -37 -86 -46 -179 -26
-267 43 -452 176 -472 124 -19 211 37 218 140 5 76 -1 106 -24 128 -20 19 -23
30 -19 71 l4 48 62 -5 c33 -3 71 -8 82 -12 15 -4 23 -2 27 9 7 18 -42 34 -122
39 -57 4 -73 12 -41 22 27 9 104 -2 147 -20 32 -14 51 -6 38 15 -11 17 -115
42 -161 38 -24 -2 -44 0 -44 4 0 5 6 8 14 8 8 0 26 14 40 31 21 25 26 41 26
87 0 152 -128 258 -245 204z m110 -27 c0 -5 -18 -10 -39 -11 -33 -1 -46 -8
-83 -48 -24 -26 -43 -56 -43 -69 0 -12 -16 -56 -36 -97 l-36 -75 4 -145 c3
-80 8 -153 12 -162 12 -26 -11 -22 -26 5 -9 15 -13 69 -13 177 1 180 15 246
75 339 53 81 83 103 139 99 25 -2 46 -7 46 -13z"/>
</g>
</svg>
